<?xml version="1.0" standalone="no"?>
<!DOCTYPE svg PUBLIC "-//W3C//DTD SVG 20010904//EN"
 "http://www.w3.org/TR/2001/REC-SVG-20010904/DTD/svg10.dtd">
<svg version="1.0" xmlns="http://www.w3.org/2000/svg"
 width="200.000000pt" height="200.000000pt" viewBox="0 0 200.000000 200.000000"
 preserveAspectRatio="xMidYMid meet">
<metadata>
Created by potrace 1.14, written by Peter Selinger 2001-2017
</metadata>
<g transform="translate(0.000000,200.000000) scale(0.100000,-0.100000)"
fill="#000000" stroke="none">
<path d="M1210 1795 c-8 -10 -37 -36 -64 -57 -62 -50 -83 -76 -87 -113 -4 -28
-2 -30 25 -27 77 8 152 103 144 182 -3 31 -4 32 -18 15z"/>
<path d="M969 1702 c-24 -25 -46 -65 -44 -79 2 -7 3 -21 4 -30 1 -10 5 -24 10
-32 7 -11 12 -10 28 5 42 40 55 71 48 114 -7 43 -20 49 -46 22z"/>
<path d="M1229 1637 c-30 -23 -69 -90 -69 -118 0 -35 0 -35 51 -9 53 28 75 85
47 123 -11 13 -16 14 -29 4z"/>
<path d="M856 1613 c-34 -34 -41 -64 -22 -100 19 -38 46 -61 47 -42 0 8 3 23
5 34 12 52 16 135 7 135 -6 0 -22 -12 -37 -27z"/>
<path d="M753 1581 c-15 -16 -20 -37 -22 -83 -1 -34 -4 -65 -7 -70 -12 -19 19
-6 41 18 19 21 25 37 24 73 0 25 -4 55 -8 65 -7 18 -8 18 -28 -3z"/>
<path d="M1009 1545 c-27 -15 -68 -80 -56 -91 3 -4 26 -1 49 5 32 10 51 24 76
57 l33 44 -38 0 c-21 -1 -49 -7 -64 -15z"/>
<path d="M623 1512 c4 -5 -2 -45 -13 -87 -11 -43 -20 -90 -20 -104 0 -27 25
-71 40 -71 5 0 21 25 36 55 21 45 26 65 22 106 -5 49 -31 98 -58 107 -7 3 -10
0 -7 -6z"/>
<path d="M1099 1504 c-19 -23 -17 -90 2 -110 15 -14 18 -12 33 19 21 45 20 70
-3 91 -17 15 -19 15 -32 0z"/>
<path d="M1352 1488 c-5 -18 -5 -47 -1 -65 9 -44 57 -123 73 -123 25 0 51 86
37 123 -9 23 -80 97 -93 97 -4 0 -11 -15 -16 -32z"/>
<path d="M530 1473 c0 -44 9 -63 31 -63 28 0 24 42 -6 70 l-25 23 0 -30z"/>
<path d="M1245 1491 c-23 -10 -94 -80 -96 -96 -10 -76 -1 -87 48 -59 51 29 83
77 83 125 0 41 -2 43 -35 30z"/>
<path d="M898 1433 c-21 -23 -78 -121 -78 -133 0 -5 8 -7 18 -4 77 25 91 43
86 108 -5 48 -7 51 -26 29z"/>
<path d="M1543 1406 c-53 -44 -63 -124 -14 -109 58 18 71 28 95 75 14 27 26
52 26 54 0 2 -18 4 -39 4 -27 0 -49 -8 -68 -24z"/>
<path d="M749 1391 c-23 -24 -29 -37 -27 -70 2 -48 17 -53 54 -16 20 20 24 34
23 70 -2 25 -7 45 -12 45 -5 0 -22 -13 -38 -29z"/>
<path d="M337 1404 c-5 -5 18 -107 28 -123 3 -6 24 -20 45 -31 32 -16 37 -23
32 -42 -5 -21 -4 -22 12 -9 25 21 36 0 36 -66 0 -41 -4 -53 -15 -53 -8 0 -15
-5 -15 -10 0 -6 16 -10 35 -8 39 2 40 4 23 22 -19 19 -11 125 9 122 8 -1 19
-9 24 -17 7 -11 9 -9 9 9 0 19 -6 22 -37 24 -21 0 -45 1 -53 2 -11 1 -16 17
-20 63 -4 45 -11 68 -25 83 -20 20 -79 43 -88 34z"/>
<path d="M1252 1365 c-47 -44 -47 -45 -19 -45 34 0 65 15 89 44 50 60 -7 61
-70 1z"/>
<path d="M487 1362 c-16 -18 -24 -92 -11 -105 10 -10 64 45 64 65 0 23 -17 58
-29 58 -4 0 -15 -8 -24 -18z"/>
<path d="M987 1353 c-28 -27 26 -113 70 -113 24 0 25 2 20 38 -8 49 -67 99
-90 75z"/>
<path d="M200 1318 c0 -17 47 -68 64 -69 6 0 21 -2 33 -5 12 -2 25 1 28 7 11
16 -14 38 -59 51 -22 6 -47 16 -53 21 -9 7 -13 5 -13 -5z"/>
<path d="M1577 1282 c-44 -18 -43 -28 3 -54 43 -22 83 -23 115 -2 32 21 31 26
-7 47 -46 24 -67 26 -111 9z"/>
<path d="M303 1223 c-7 -2 -13 -9 -13 -14 0 -6 5 -7 10 -4 6 4 10 -6 11 -22 0
-15 2 -45 3 -65 1 -21 -2 -38 -6 -38 -4 0 -8 -4 -8 -9 0 -5 11 -8 25 -8 29 0
28 -2 16 30 -8 19 -6 27 5 31 10 4 20 -6 31 -29 15 -32 53 -50 53 -25 0 6 -4
10 -10 10 -5 0 -17 11 -25 24 -15 23 -15 26 4 45 24 24 25 30 7 53 -13 17 -79
31 -103 21z m91 -29 c10 -26 7 -32 -25 -43 -18 -6 -33 -11 -35 -11 -2 0 -3 16
-2 35 1 31 4 35 29 35 15 0 29 -7 33 -16z"/>
<path d="M646 1214 c-9 -8 -16 -20 -16 -25 0 -11 35 -45 71 -70 13 -9 19 -20
15 -27 -11 -18 -37 -14 -62 9 -24 23 -36 15 -23 -16 4 -11 8 -14 8 -6 1 9 5
10 14 4 6 -6 22 -13 35 -16 18 -4 26 0 35 20 10 22 8 28 -14 47 -15 11 -34 26
-44 32 -24 13 -13 44 16 44 12 0 23 -8 26 -20 3 -11 11 -20 18 -20 15 0 25
-22 25 -55 0 -26 29 -62 39 -48 9 12 41 15 41 3 0 -5 9 -10 20 -10 21 0 26 10
11 26 -5 5 -11 27 -13 49 -3 45 -21 50 -26 8 -4 -33 -19 -53 -38 -53 -10 0
-14 13 -14 45 0 41 -2 45 -24 45 -20 0 -23 4 -18 22 4 17 2 20 -11 15 -9 -3
-19 -2 -22 3 -9 15 -32 12 -49 -6z"/>
<path d="M1390 1215 c0 -8 7 -15 15 -15 8 0 15 7 15 15 0 8 -7 15 -15 15 -8 0
-15 -7 -15 -15z"/>
<path d="M1087 1182 c-12 -2 -16 -10 -12 -21 3 -10 -1 -33 -9 -52 l-15 -34
-15 37 c-9 20 -13 43 -10 51 4 13 -8 15 -72 13 -51 -1 -79 -6 -82 -14 -2 -7 2
-12 8 -12 9 0 11 -14 8 -45 -5 -39 -3 -45 13 -45 21 0 34 16 19 25 -17 11 -11
54 9 65 13 7 22 7 26 0 3 -5 13 -10 21 -10 8 0 12 5 9 10 -3 6 -2 10 2 10 5 0
19 -22 30 -50 12 -27 25 -50 30 -50 11 0 73 119 64 123 -3 2 -14 2 -24 -1z"/>
<path d="M1376 1182 c-3 -5 4 -12 15 -15 14 -4 18 -10 13 -19 -5 -7 -10 -22
-11 -33 -2 -10 -9 -22 -15 -27 -16 -9 -4 -21 27 -24 18 -2 25 2 25 15 0 10 -3
21 -7 25 -5 4 -8 24 -8 44 0 26 -5 37 -17 40 -9 2 -19 -1 -22 -6z"/>
<path d="M1444 1169 c4 -13 7 -43 6 -66 -1 -32 3 -41 15 -39 18 3 19 5 9 30
-9 24 8 51 32 51 16 0 19 -7 17 -46 -2 -44 -1 -46 23 -41 22 4 35 22 16 22 -5
0 -8 12 -7 28 2 41 -21 71 -51 66 -13 -2 -34 1 -46 7 -19 10 -20 9 -14 -12z"/>
<path d="M1618 1183 c-17 -4 -23 -20 -20 -53 1 -8 -1 -22 -5 -30 -13 -31 -14
-62 -2 -76 13 -16 72 -19 100 -4 41 23 12 78 -43 82 -33 2 -35 4 -34 32 1 24
7 32 24 34 27 4 30 -22 5 -37 -10 -5 -15 -13 -10 -17 4 -4 15 1 26 10 24 22
34 56 16 56 -7 0 -19 2 -27 4 -7 2 -21 2 -30 -1z m60 -106 c16 -11 15 -44 -2
-50 -8 -3 -22 -4 -32 -2 -11 2 -25 4 -31 4 -20 1 -16 49 5 54 22 6 44 3 60 -6z"/>
<path d="M1131 1166 c-17 -20 -17 -72 0 -92 10 -12 24 -15 52 -11 45 6 55 13
39 29 -8 8 -15 6 -27 -6 -22 -21 -31 -20 -49 6 -24 34 -20 40 24 35 46 -5 56
3 40 33 -13 24 -61 27 -79 6z m62 -10 c4 -10 -3 -13 -24 -12 -27 1 -35 6 -24
17 10 11 44 7 48 -5z"/>
<path d="M1258 1172 c-22 -4 -23 -11 -3 -26 8 -6 21 -27 29 -47 13 -32 13 -39
1 -55 -13 -17 -14 -17 -15 -2 0 11 -5 15 -15 12 -23 -9 0 -44 24 -37 19 5 64
82 64 109 0 7 7 16 14 18 8 3 11 10 8 16 -9 14 -36 12 -33 -2 3 -19 -12 -58
-23 -58 -5 0 -9 1 -9 3 0 1 -6 18 -13 37 -8 25 -17 34 -29 32z"/>
<path d="M1504 1006 c-41 -18 -49 -33 -25 -45 35 -19 88 -13 105 11 12 17 13
24 3 29 -29 16 -54 17 -83 5z"/>
<path d="M447 994 c-8 -8 47 -101 66 -113 10 -7 36 -14 57 -17 l39 -6 -15 45
c-20 59 -52 88 -102 92 -22 2 -43 1 -45 -1z"/>
<path d="M920 960 c0 -44 20 -84 44 -88 14 -3 17 0 12 13 -3 9 -6 25 -6 35 0
11 -11 32 -25 47 l-24 28 -1 -35z"/>
<path d="M1623 965 c-11 -8 -30 -30 -42 -50 l-20 -35 35 0 c53 0 98 25 117 65
l17 35 -43 0 c-23 0 -52 -7 -64 -15z"/>
<path d="M340 959 c1 -29 46 -70 83 -76 34 -5 37 -4 37 19 0 40 -22 60 -73 65
-36 4 -47 2 -47 -8z"/>
<path d="M1038 913 c-18 -32 -39 -71 -46 -86 l-12 -28 -36 37 c-41 40 -125 84
-164 84 -23 0 -21 -5 35 -63 125 -131 146 -215 101 -402 -29 -118 -34 -193
-17 -238 9 -23 16 -27 51 -28 51 -1 120 -1 164 0 l35 1 -34 74 c-42 89 -55
147 -57 240 -1 72 13 132 40 174 8 12 13 24 11 25 -2 1 -21 11 -41 21 -46 23
-46 30 -14 151 13 50 23 91 21 93 -2 2 -18 -23 -37 -55z"/>
<path d="M1280 953 c-8 -1 -36 -5 -62 -8 -61 -8 -102 -42 -122 -101 -14 -43
-14 -45 2 -38 9 4 50 13 90 20 40 7 81 18 91 24 21 11 93 91 87 97 -4 5 -66 9
-86 6z"/>
<path d="M1385 879 c-46 -40 -46 -59 1 -59 41 0 68 12 107 48 32 30 22 42 -35
42 -28 0 -47 -8 -73 -31z"/>
<path d="M655 870 c-3 -5 5 -21 19 -35 26 -26 69 -33 96 -15 13 9 11 14 -13
35 -29 26 -90 35 -102 15z"/>
<path d="M530 837 c0 -3 9 -25 19 -50 36 -83 89 -103 186 -70 l49 16 -28 22
c-16 13 -67 35 -115 49 -47 15 -92 30 -98 33 -7 2 -13 2 -13 0z"/>
<path d="M1573 820 c-11 -5 -51 -11 -87 -14 -71 -6 -91 -13 -120 -45 -27 -29
-11 -42 55 -46 77 -3 112 9 153 55 49 54 48 70 -1 50z"/>
<path d="M1205 761 c-31 -9 -53 -25 -57 -41 -5 -22 69 -21 114 1 37 19 56 38
41 40 -26 5 -81 4 -98 0z"/>
<path d="M800 697 c-74 -35 -94 -63 -104 -144 -7 -52 3 -54 66 -14 67 42 84
76 79 154 -1 19 -6 20 -41 4z"/>
<path d="M531 679 c-20 -8 -21 -12 -10 -25 17 -20 63 -44 86 -44 10 0 29 7 41
16 l22 15 -29 25 c-30 25 -68 30 -110 13z"/>
<path d="M1253 677 c-22 -12 -23 -13 -4 -29 48 -41 83 -47 119 -22 l22 15 -29
25 c-32 26 -73 31 -108 11z"/>
<path d="M864 605 c-26 -28 -64 -116 -64 -149 0 -18 43 -2 74 28 34 31 36 37
36 95 0 33 -3 61 -6 61 -4 0 -21 -16 -40 -35z"/>
<path d="M1123 619 c-13 -4 -23 -12 -23 -16 0 -17 32 -54 60 -68 40 -21 64
-19 116 9 l46 24 -42 28 c-44 30 -114 40 -157 23z"/>
<path d="M1100 488 c0 -37 14 -50 51 -46 19 2 36 8 38 13 4 12 -34 41 -66 50
-19 5 -23 2 -23 -17z"/>
</g>
</svg>
